<?xml version="1.0" encoding="iso-8859-1"?>
<!-- Generator: Adobe Illustrator 19.0.0, SVG Export Plug-In . SVG Version: 6.00 Build 0)  -->
<svg version="1.1" id="Capa_1" xmlns="http://www.w3.org/2000/svg" xmlns:xlink="http://www.w3.org/1999/xlink" x="0px" y="0px"
	 viewBox="0 0 512 512" style="enable-background:new 0 0 512 512;" xml:space="preserve">
<rect x="211.786" y="418.532" style="fill:#AD4F3D;" width="32.733" height="72.659"/>
<path style="fill:#C86D5C;" d="M228.147,434.054c-65.409,0-126.904-25.471-173.156-71.723l21.485-21.485
	c40.513,40.512,94.377,62.824,151.67,62.824c57.292,0,111.157-22.312,151.669-62.824c40.512-40.513,62.824-94.377,62.824-151.67
	S420.328,78.018,379.816,37.506l21.485-21.485c46.252,46.251,71.723,107.746,71.723,173.155s-25.471,126.905-71.723,173.156
	C355.052,408.583,293.556,434.054,228.147,434.054z"/>
<g>
	<path style="fill:#AD4F3D;" d="M114.765,371.332c-13.718-8.575-26.565-18.763-38.288-30.486l-21.485,21.485
		c11.682,11.682,24.34,22.034,37.784,30.99L114.765,371.332z"/>
	<path style="fill:#AD4F3D;" d="M401.302,16.021l-21.485,21.485c11.722,11.722,21.911,24.57,30.486,38.288l21.989-21.989
		C423.336,40.36,412.985,27.704,401.302,16.021z"/>
</g>
<path style="fill:#C86D5C;" d="M412.248,14.674l-9.597-9.598c-4.271-4.272-11.197-4.272-15.469,0L44.047,348.209
	c-4.272,4.272-4.272,11.197,0,15.469l9.598,9.597c4.272,4.271,11.197,4.271,15.469,0L412.248,30.143
	C416.519,25.872,416.519,18.946,412.248,14.674z"/>
<path style="fill:#58B78C;" d="M347.938,117.237L305.285,23.38L278.718,6.836C262.623,2.38,245.658,0,228.146,0
	C166.231,0,111.253,29.748,76.745,75.741l-18.414,46.223l9.207,62.273l55.156,85.326l81.305,54.296l45.578,32.412l39.066,12.205
	c14.109-4.76,27.469-11.131,39.866-18.91v-0.021l37.546-56.746l6.077-57.394L347.938,117.237z"/>
<path style="fill:#6EE3FF;" d="M288.643,368.474c-19.001,6.402-39.34,9.875-60.497,9.875c-104.476,0-189.17-84.694-189.17-189.17
	c0-42.56,14.058-81.839,37.77-113.439c-0.365,92.138,42.853,54.33,52.982,119.152c8.417,53.863,49.002-1.843,58.219,45.599
	c6.381,32.837,23.629,62.574,49.133,84.218L288.643,368.474z"/>
<path style="fill:#46926F;" d="M67.539,184.237l2.357,3.646c0.283-42.06,14.287-80.863,37.756-112.142
	C139.25,33.625,188.016,5.149,243.551,0.644c-1.742-0.14-3.493-0.251-5.248-0.348C234.921,0.108,231.534,0,228.146,0
	c-27.088,0-52.848,5.694-76.147,15.951c-29.666,13.061-55.805,33.867-75.254,59.79l-18.414,46.223L67.539,184.237z"/>
<path style="fill:#42C3E2;" d="M232.057,378.309c3.892-0.079,7.754-0.277,11.584-0.588c-97.267-7.843-173.76-89.256-173.76-188.542
	c0-23.915,4.439-46.793,12.535-67.856c-3.556-10.26-5.755-24.519-5.672-45.583c-1.481,1.975-2.926,3.981-4.332,6.014
	c-21.723,31.438-33.438,69.224-33.438,107.425c0,39.013,12.29,77.713,34.9,109.508c11.429,16.071,25.305,30.278,41.086,42.08
	c32.535,24.332,72.563,37.581,113.183,37.581C228.548,378.349,231.155,378.325,232.057,378.309z"/>
<path style="fill:#6EE3FF;" d="M417.316,189.179c0,67.608-35.47,126.93-88.807,160.385v-0.021c0,0,24.045-39.187,18.636-69.572
	c-5.398-30.385-29.028-9.926-31.054-54.936c-2.025-45-141.798-15.963-66.514-55.808c75.285-39.835,70.008-55.24,46.987-73.532
	c-23.012-18.292,8.953-52.02-17.837-88.837c0-0.01-0.01-0.01-0.01-0.021C358.641,28.957,417.316,102.206,417.316,189.179z"/>
<path style="fill:#C86D5C;" d="M247.37,470.384h-38.445c-22.984,0-41.616,18.632-41.616,41.616l0,0h121.679l0,0
	C288.986,489.016,270.355,470.384,247.37,470.384z"/>
<g>
</g>
<g>
</g>
<g>
</g>
<g>
</g>
<g>
</g>
<g>
</g>
<g>
</g>
<g>
</g>
<g>
</g>
<g>
</g>
<g>
</g>
<g>
</g>
<g>
</g>
<g>
</g>
<g>
</g>
</svg>
